<?xml version="1.0" encoding="UTF-8"?>
<svg width="20px" height="21px" viewBox="0 0 20 21" version="1.1" xmlns="http://www.w3.org/2000/svg" xmlns:xlink="http://www.w3.org/1999/xlink">
    <!-- Generator: Sketch 51.3 (57544) - http://www.bohemiancoding.com/sketch -->
    <title>icons/headphones</title>
    <desc>Created with Sketch.</desc>
    <defs></defs>
    <g id="Symbols" stroke="none" stroke-width="1" fill="none" fill-rule="evenodd">
        <g id="box/contact" transform="translate(-15.000000, -138.000000)" stroke="#FFFFFF" stroke-width="0.864">
            <g id="Group">
                <g id="icons/headphones" transform="translate(15.714286, 138.991770)">
                    <path d="M17.28,8.064 C17.28,3.61022095 13.738702,0 9.3708653,0 C5.82164429,0 2.81826139,2.38383057 1.81713375,5.66632169 C1.81713375,5.66632169 1.759692,5.86567144 1.728,6.24273383" id="Stroke-1"></path>
                    <path d="M17.28,14.4 C16.329689,14.4 15.552,13.8038679 15.552,13.0755463 L15.552,9.38816942 C15.552,8.65984781 16.329689,8.064 17.28,8.064 C18.230311,8.064 19.008,8.65984781 19.008,9.38816942 L19.008,13.0755463 C19.008,13.8038679 18.230311,14.4 17.28,14.4 Z" id="Stroke-3"></path>
                    <path d="M1.72814829,14.4 C0.777622243,14.4 0,13.8038679 0,13.0755463 L0,9.38816942 C0,8.65984781 0.777622243,8.064 1.72814829,8.064 C2.67837776,8.064 3.456,8.65984781 3.456,9.38816942 L3.456,13.0755463 C3.456,13.8038679 2.67837776,14.4 1.72814829,14.4 Z" id="Stroke-5"></path>
                    <path d="M17.28,14.4 C17.28,16.6267257 15.4068301,18.432 13.0963582,18.432 L12.096,18.432" id="Stroke-7"></path>
                    <path d="M11.2489003,19.008 L9.48709973,19.008 C9.02112533,19.008 8.64,18.6192709 8.64,18.144 C8.64,17.6690128 9.02112533,17.28 9.48709973,17.28 L11.2489003,17.28 C11.7148747,17.28 12.096,17.6690128 12.096,18.144 C12.096,18.6192709 11.7148747,19.008 11.2489003,19.008 Z" id="Stroke-9"></path>
                </g>
            </g>
        </g>
    </g>
</svg>