<?xml version="1.0" encoding="UTF-8"?>
<svg width="20px" height="20px" viewBox="0 0 20 20" version="1.1" xmlns="http://www.w3.org/2000/svg" xmlns:xlink="http://www.w3.org/1999/xlink">
    <!-- Generator: Sketch 51.2 (57519) - http://www.bohemiancoding.com/sketch -->
    <title>+</title>
    <desc>Created with Sketch.</desc>
    <defs></defs>
    <g id="Symbols" stroke="none" stroke-width="1" fill="none" fill-rule="evenodd">
        <g id="kalkulator_slider" transform="translate(-243.000000, 0.000000)" fill="#4A4A4A">
            <g id="Group-4">
                <g id="+" transform="translate(243.000000, 0.000000)">
                    <path d="M10,1 C5.02933333,1 1,5.02933333 1,10 C1,14.9706667 5.02933333,19 10,19 C14.9706667,19 19,14.9706667 19,10 C19,5.02933333 14.9706667,1 10,1 M10,0 C15.5226667,0 20,4.47666667 20,10 C20,15.5233333 15.5226667,20 10,20 C4.47733333,20 0,15.5233333 0,10 C0,4.47666667 4.47733333,0 10,0" id="Fill-1"></path>
                    <path d="M10,4.5 C10.276,4.5 10.5,4.724 10.5,5 L10.5,9.5 L15,9.5 C15.276,9.5 15.5,9.724 15.5,10 C15.5,10.276 15.276,10.5 15,10.5 L10.5,10.5 L10.5,15 C10.5,15.276 10.276,15.5 10,15.5 C9.724,15.5 9.5,15.276 9.5,15 L9.5,10.5 L5,10.5 C4.724,10.5 4.5,10.276 4.5,10 C4.5,9.724 4.724,9.5 5,9.5 L9.5,9.5 L9.5,5 C9.5,4.724 9.724,4.5 10,4.5" id="Fill-3"></path>
                </g>
            </g>
        </g>
    </g>
</svg>